<?xml version="1.0" standalone="no"?>
<!DOCTYPE svg PUBLIC "-//W3C//DTD SVG 20010904//EN"
 "http://www.w3.org/TR/2001/REC-SVG-20010904/DTD/svg10.dtd">
<svg version="1.0" xmlns="http://www.w3.org/2000/svg"
 width="500.000000pt" height="500.000000pt" viewBox="0 0 500.000000 500.000000"
 preserveAspectRatio="xMidYMid meet">
<metadata>
Created by potrace 1.14, written by Peter Selinger 2001-2017
</metadata>
<g transform="translate(0.000000,500.000000) scale(0.100000,-0.100000)"
fill="#000000" stroke="none">
<path d="M2424 4400 c-46 -14 -129 -93 -155 -148 -48 -99 -23 -230 60 -308
l41 -39 0 -342 0 -343 -109 0 c-97 0 -111 2 -137 22 -16 13 -195 165 -398 338
-434 372 -412 354 -429 343 -8 -4 -64 -66 -125 -138 -60 -71 -167 -195 -236
-275 -69 -80 -125 -152 -126 -161 0 -9 141 -136 320 -289 l320 -272 0 -668 c0
-568 2 -671 14 -683 17 -16 335 -34 399 -22 l37 7 0 -91 0 -91 50 0 50 0 0 90
0 90 515 0 515 0 0 -90 0 -90 50 0 49 0 3 54 3 54 293 -250 c161 -137 298
-248 306 -246 19 4 496 563 495 580 0 7 -146 137 -324 288 l-324 275 -1 602 0
603 -25 16 c-24 15 -67 17 -458 13 l-432 -4 -3 337 -2 337 44 41 c64 59 90
125 84 218 -5 65 -9 80 -44 130 -24 34 -58 68 -88 87 -42 26 -60 30 -125 32
-42 1 -90 -2 -107 -7z m199 -123 c44 -33 67 -83 67 -142 0 -55 -18 -93 -60
-129 -87 -73 -225 -44 -271 58 -35 77 -19 147 45 204 20 17 49 34 64 38 15 3
31 7 37 8 24 6 88 -14 118 -37z m-934 -724 l372 -318 -291 -5 c-345 -6 -320 5
-320 -136 l0 -91 -39 -44 c-44 -50 -41 -50 -136 34 l-50 45 48 50 c48 52 57
75 35 88 -7 5 -32 -14 -64 -51 l-52 -58 -74 63 c-40 35 -73 67 -73 71 0 4 48
64 108 134 59 69 107 133 107 141 0 35 -37 5 -141 -116 -62 -71 -114 -130
-116 -130 -10 0 -133 113 -133 122 0 10 432 518 441 518 3 0 173 -143 378
-317z m871 -10 l0 -323 -45 0 -45 0 0 323 0 324 45 0 45 0 0 -324z m920 -1218
l0 -805 -965 0 -965 0 0 798 c0 439 3 802 7 805 3 4 438 7 965 7 l958 0 0
-805z m-2030 563 l0 -42 -22 21 c-21 22 -21 23 -3 43 10 11 20 20 22 20 1 0 3
-19 3 -42z m2438 -1212 l292 -249 -53 -61 c-30 -34 -131 -152 -226 -264 l-173
-202 -68 57 c-38 32 -69 61 -69 65 -1 4 48 65 109 135 60 70 109 134 110 141
1 38 -46 1 -146 -117 l-111 -129 -71 60 c-80 66 -80 67 -18 127 40 39 47 71
16 71 -13 0 -36 -21 -62 -54 l-42 -55 -66 56 c-36 31 -72 62 -80 70 -12 11 -9
18 25 53 l39 40 131 0 c89 0 135 4 143 12 9 9 12 80 12 256 0 134 4 242 8 240
5 -1 140 -115 300 -252z m-681 -283 l-27 -28 -27 28 -28 27 55 0 55 0 -28 -27z"/>
<path d="M1920 2525 l0 -165 165 0 165 0 -2 163 -3 162 -162 3 -163 2 0 -165z"/>
<path d="M2790 2525 l0 -165 165 0 165 0 -2 163 -3 162 -162 3 -163 2 0 -165z"/>
<path d="M1970 1935 l0 -75 540 0 540 0 0 75 0 75 -540 0 -540 0 0 -75z"/>
<path d="M3675 3885 c-17 -8 -85 -69 -150 -135 l-120 -120 165 -165 165 -166
132 134 c185 187 185 192 15 360 -85 85 -104 99 -138 103 -24 3 -51 -1 -69
-11z"/>
<path d="M1067 1113 c-84 -177 -87 -230 -11 -226 42 2 162 48 232 89 l44 26
-103 104 c-57 57 -106 104 -110 104 -3 0 -26 -44 -52 -97z"/>
<path d="M4437 773 c-4 -3 -7 -68 -7 -143 l0 -136 33 -32 c32 -31 35 -32 123
-32 89 0 91 0 122 33 31 32 32 36 32 114 0 73 -3 85 -26 112 -26 31 -26 31
-125 31 l-99 0 0 30 c0 25 -4 30 -23 30 -13 0 -27 -3 -30 -7z m241 -195 l3
-88 -96 0 -95 0 0 83 c0 46 3 87 7 91 4 4 46 5 93 4 l85 -3 3 -87z"/>
<path d="M292 687 l-32 -33 0 -112 0 -112 30 0 30 0 0 60 0 60 100 0 100 0 0
-60 0 -60 30 0 30 0 0 114 c0 109 -1 116 -26 145 -26 31 -26 31 -128 31 l-102
0 -32 -33z m226 -55 l3 -33 -98 3 c-85 3 -98 5 -101 21 -8 43 3 48 100 45 l93
-3 3 -33z"/>
<path d="M640 602 c0 -117 0 -119 28 -145 27 -26 33 -27 128 -27 97 0 101 1
127 28 26 27 27 32 27 145 l0 117 -30 0 -30 0 0 -115 0 -115 -95 0 -95 0 0
115 0 115 -30 0 -30 0 0 -118z"/>
<path d="M1020 695 c0 -22 4 -24 58 -27 l57 -3 3 -117 3 -118 29 0 30 0 0 120
0 120 60 0 c57 0 60 1 60 25 l0 25 -150 0 -150 0 0 -25z"/>
<path d="M1407 692 c-25 -26 -27 -34 -27 -118 0 -86 1 -92 28 -117 27 -26 33
-27 128 -27 97 0 101 1 127 28 25 26 27 34 27 117 0 83 -2 91 -27 117 -26 27
-30 28 -128 28 -98 0 -102 -1 -128 -28z m231 -114 l3 -88 -101 0 -100 0 0 90
0 91 98 -3 97 -3 3 -87z"/>
<path d="M1787 692 c-26 -27 -27 -32 -27 -145 l0 -117 25 0 24 0 3 118 3 117
113 3 c112 3 112 3 112 27 l0 25 -113 0 c-111 0 -114 -1 -140 -28z"/>
<path d="M2127 692 c-26 -27 -27 -32 -27 -145 l0 -117 30 0 30 0 0 60 0 60
100 0 100 0 0 -60 c0 -57 1 -60 25 -60 l25 0 0 117 c0 113 -1 118 -27 145 -26
27 -30 28 -128 28 -98 0 -102 -1 -128 -28z m228 -57 l0 -30 -97 -3 -98 -3 0
36 0 36 98 -3 97 -3 0 -30z"/>
<path d="M2507 692 c-26 -27 -27 -32 -27 -145 l0 -117 25 0 24 0 3 118 3 117
45 0 45 0 3 -77 c3 -75 4 -78 27 -78 23 0 24 3 27 78 l3 77 45 0 45 0 3 -117
3 -118 24 0 25 0 0 117 c0 113 -1 118 -27 145 -26 28 -28 28 -148 28 -120 0
-122 0 -148 -28z"/>
<path d="M2927 692 c-25 -26 -27 -34 -27 -118 0 -86 1 -92 28 -117 27 -26 33
-27 128 -27 97 0 101 1 127 28 25 26 27 34 27 117 0 83 -2 91 -27 117 -26 27
-30 28 -128 28 -98 0 -102 -1 -128 -28z m223 -112 l0 -90 -100 0 -100 0 0 83
c0 46 3 87 7 90 3 4 48 7 100 7 l93 0 0 -90z"/>
<path d="M3296 689 c-14 -17 -26 -41 -26 -54 0 -13 12 -37 26 -54 26 -31 26
-31 125 -31 l99 0 0 -30 0 -29 -122 -3 -123 -3 -3 -27 -3 -28 123 0 124 0 32
33 c40 41 41 75 4 110 -25 24 -35 26 -122 29 l-95 3 0 30 0 30 123 3 122 3 0
24 0 25 -129 0 -129 0 -26 -31z"/>
<path d="M3640 602 c0 -117 0 -119 28 -145 27 -26 32 -27 147 -27 115 0 120 1
147 27 28 26 28 28 28 145 l0 118 -25 0 -25 0 0 -115 0 -115 -45 0 -45 0 0 75
0 75 -30 0 -30 0 0 -75 0 -75 -45 0 -45 0 0 115 0 115 -30 0 -30 0 0 -118z"/>
<path d="M4087 692 c-25 -26 -27 -34 -27 -118 0 -86 1 -92 28 -117 27 -26 31
-27 155 -27 l127 0 0 30 0 30 -125 0 -125 0 0 30 0 30 90 0 c89 0 90 0 90 25
0 25 -1 25 -90 25 l-90 0 0 35 0 35 125 0 125 0 0 25 0 25 -128 0 c-127 0
-128 0 -155 -28z"/>
</g>
</svg>
